<svg version="1.2" xmlns="http://www.w3.org/2000/svg" viewBox="0 0 76 93" width="76" height="93"><style>.a{fill:#10cab7}</style><path fill-rule="evenodd" class="a" d="m47.3 15.5c1.5-1.5 1.5-3.9 0-5.4-1.5-1.5-3.9-1.5-5.4 0-1.5 1.5-1.5 3.9 0 5.4 1.5 1.5 3.9 1.5 5.4 0zm-11.3-3.1c2.1-2.2 2.1-5.7 0-7.8-2.1-2.1-5.6-2.1-7.7 0-2.2 2.1-2.2 5.6 0 7.8 2.1 2.1 5.6 2.1 7.7 0zm31 60.3l-16.1-27.5c-0.9-1.6-1.9-5.1-1.8-7v-12.6h1.7c0.7 0 1.4-0.7 1.4-1.4v-1.5c0-0.7-0.7-1.4-1.4-1.4h-25.8c-0.7 0-1.4 0.7-1.4 1.4v1.5c0 0.7 0.7 1.4 1.4 1.4h1.3v12.6c0 1.9-0.9 5.4-1.9 7l-16 27.5c-0.5 0.8-0.8 1.8-0.8 2.7 0 1.2 0.5 2.4 1.5 3.2 0.9 0.7 2.1 1 3.3 1h50.6c1.2 0 2.3-0.3 3.3-1 0.9-0.8 1.5-2 1.5-3.2 0-0.9-0.3-1.9-0.8-2.7z"/></svg>