<svg version="1.2" xmlns="http://www.w3.org/2000/svg" viewBox="0 0 71 71" width="71" height="71"><style>.a{fill:#10cab7}</style><path fill-rule="evenodd" class="a" d="m65.9 66h-16.8l7.1-7.1q1.3 0.3 2.6 0.3c6.7 0 12.1-5.4 12.1-12.1 0-6.6-5.4-12-12.1-12-1.6 0-3.2 0.3-4.6 0.9l-8.6-8.7 3.7-3.7c2.3-2.5 3.6-5.8 3.6-9.4 0 0 0 0 0 0 0-7.9-6.3-14.1-14.1-14.2q0 0-0.1 0c-3.6 0-6.9 1.3-9.3 3.6l-10 9.9-15.2 1.8c-0.7 0.1-1.5 0.3-2.2 0.9-0.7 0.5-1.2 1.5-1.2 2.4 0 1.3 0.6 2.1 1.3 2.8l29.4 29.4c0.7 0.7 1.6 1.3 2.8 1.3 1 0 1.9-0.5 2.4-1.2 0.6-0.7 0.8-1.4 0.9-2.2l-2.2-0.3 2.2 0.3 1.7-15.1 3.1-3.1 8 8c-2.2 2.2-3.6 5.2-3.6 8.6 0 4.1 2 7.7 5.1 9.9l-9 9h-17.5c-0.8 0-1.5 0.6-1.5 1.5v1.4c0 0.9 0.7 1.5 1.5 1.5h40.5c0.8 0 1.5-0.6 1.5-1.5v-1.4c0-0.9-0.7-1.5-1.5-1.5zm-30.8-34.5l-1.7 14.9-26.9-26.9 14.9-1.7 11-11c1.6-1.5 3.8-2.4 6.3-2.4q0 0 0 0c5.4 0 9.8 4.4 9.8 9.7v0.1c0 2.5-0.9 4.7-2.4 6.3zm23.7 8c4.2 0 7.6 3.4 7.7 7.6-0.1 4.2-3.5 7.7-7.7 7.7-4.2 0-7.6-3.5-7.6-7.7 0-4.2 3.4-7.6 7.6-7.6z"/></svg>