<svg version="1.2" xmlns="http://www.w3.org/2000/svg" viewBox="0 0 63 73" width="63" height="73"><style>.a{fill:#10cab7}</style><path fill-rule="evenodd" class="a" d="m44.6 72.9h-25.5c-0.8 0-1.4-0.7-1.4-1.5v-1c0-0.7 0.6-1.4 1.4-1.4h10.8v-6.6c-16.7-2.1-29.2-16.3-29.2-33.2 0-11.8 6-22.5 16.2-28.6l0.3-0.2h0.1q0.4-0.2 0.7-0.2c1.1 0 2 0.9 2 2 0 0.6-0.3 1.1-0.8 1.5l-0.4 0.2q-2.3 1.4-4.4 3.3l3.2 3.3c4.6-4 10.4-6.2 16.5-6.2 13.8 0 25 11.2 25 24.9 0 6.1-2.2 12-6.2 16.5l3.2 3.3q1.9-2.1 3.3-4.5l0.1-0.1 0.1-0.1c0.4-0.6 0.9-0.8 1.5-0.8 1.1 0 2 0.8 2 1.9q0 0.3-0.2 0.7l-0.1 0.3-0.1 0.2c-6.2 10.1-16.8 16.1-28.6 16.1q-0.2 0-0.3 0v6.3h10.8c0.8 0 1.5 0.7 1.5 1.4v1c0 0.8-0.7 1.5-1.5 1.5zm-32.9-62.9c-4.6 5.3-7.2 12.2-7.2 19.2 0 16.3 13.3 29.6 29.6 29.6 7.1 0 13.9-2.5 19.3-7.2l-3.3-3.2c-4.5 3.8-10.1 5.8-16 5.8-13.8 0-25-11.2-25-25 0-5.8 2.1-11.5 5.8-16l-3.2-3.2zm22.4-1.9c-11.6 0-21.1 9.5-21.1 21.1 0 11.7 9.5 21.2 21.1 21.2 11.6 0 21.1-9.5 21.1-21.2 0-11.6-9.5-21.1-21.1-21.1z"/></svg>